<svg width="16" height="16" viewBox="0 0 16 16" fill="none" xmlns="http://www.w3.org/2000/svg">
<path d="M13 2H7C6.86739 2 6.74021 2.05268 6.64645 2.14645C6.55268 2.24021 6.5 2.36739 6.5 2.5C6.5 2.63261 6.55268 2.75979 6.64645 2.85355C6.74021 2.94732 6.86739 3 7 3H9.474L5.656 13H3C2.86739 13 2.74021 13.0527 2.64645 13.1464C2.55268 13.2402 2.5 13.3674 2.5 13.5C2.5 13.6326 2.55268 13.7598 2.64645 13.8536C2.74021 13.9473 2.86739 14 3 14H9C9.13261 14 9.25979 13.9473 9.35355 13.8536C9.44732 13.7598 9.5 13.6326 9.5 13.5C9.5 13.3674 9.44732 13.2402 9.35355 13.1464C9.25979 13.0527 9.13261 13 9 13H6.726L10.544 3H13C13.1326 3 13.2598 2.94732 13.3536 2.85355C13.4473 2.75979 13.5 2.63261 13.5 2.5C13.5 2.36739 13.4473 2.24021 13.3536 2.14645C13.2598 2.05268 13.1326 2 13 2V2Z" fill="#0A100D"/>
</svg>
