<svg width="16" height="16" viewBox="0 0 16 16" fill="none" xmlns="http://www.w3.org/2000/svg">
<path d="M4.5 2C4.63261 2 4.75979 2.05268 4.85355 2.14645C4.94732 2.24021 5 2.36739 5 2.5V8C5 9.624 6.376 11 8 11C9.624 11 11 9.624 11 8V2.5C11 2.36739 11.0527 2.24021 11.1464 2.14645C11.2402 2.05268 11.3674 2 11.5 2C11.6326 2 11.7598 2.05268 11.8536 2.14645C11.9473 2.24021 12 2.36739 12 2.5V8C12 10.176 10.176 12 8 12C5.824 12 4 10.176 4 8V2.5C4 2.36739 4.05268 2.24021 4.14645 2.14645C4.24021 2.05268 4.36739 2 4.5 2ZM4 13.5C4 13.3674 4.05268 13.2402 4.14645 13.1464C4.24021 13.0527 4.36739 13 4.5 13H11.5C11.6326 13 11.7598 13.0527 11.8536 13.1464C11.9473 13.2402 12 13.3674 12 13.5C12 13.6326 11.9473 13.7598 11.8536 13.8536C11.7598 13.9473 11.6326 14 11.5 14H4.5C4.36739 14 4.24021 13.9473 4.14645 13.8536C4.05268 13.7598 4 13.6326 4 13.5Z" fill="#0A100D"/>
</svg>
