<svg width="16" height="16" viewBox="0 0 16 16" fill="none" xmlns="http://www.w3.org/2000/svg">
<path d="M5 5.1C5 4.546 5.292 4.035 5.84 3.645C6.392 3.252 7.187 3 8.1 3C9.398 3 10.484 3.56 10.863 4.243C10.9274 4.3589 11.0353 4.44445 11.1628 4.48083C11.2903 4.51721 11.4271 4.50145 11.543 4.437C11.6589 4.37255 11.7445 4.2647 11.7808 4.13718C11.8172 4.00965 11.8014 3.8729 11.737 3.757C11.117 2.64 9.602 2 8.1 2C7.013 2 6.008 2.298 5.26 2.83C4.508 3.365 4 4.154 4 5.1C4 5.82 4.3 6.475 4.79 7H6.512C5.552 6.593 5 5.83 5 5.1ZM13.5 8C13.6326 8 13.7598 8.05268 13.8536 8.14645C13.9473 8.24021 14 8.36739 14 8.5C14 8.63261 13.9473 8.75979 13.8536 8.85355C13.7598 8.94732 13.6326 9 13.5 9H11.158C11.675 9.504 12 10.149 12 10.9C12 11.802 11.485 12.588 10.745 13.129C10.002 13.672 8.996 14 7.9 14C6.276 14 4.898 13.35 4.184 12.277C4.11512 12.1667 4.09194 12.0338 4.11939 11.9067C4.14683 11.7796 4.22274 11.6681 4.33101 11.596C4.43927 11.5239 4.57137 11.4969 4.69926 11.5206C4.82715 11.5443 4.94077 11.6169 5.016 11.723C5.502 12.45 6.524 13 7.9 13C8.804 13 9.598 12.728 10.155 12.321C10.715 11.912 11 11.398 11 10.9C11 10.125 10.37 9.374 9.223 9H2.5C2.36739 9 2.24021 8.94732 2.14645 8.85355C2.05268 8.75979 2 8.63261 2 8.5C2 8.36739 2.05268 8.24021 2.14645 8.14645C2.24021 8.05268 2.36739 8 2.5 8H13.5Z" fill="black"/>
</svg>
